<?xml version="1.0" standalone="no"?>
<!DOCTYPE svg PUBLIC "-//W3C//DTD SVG 20010904//EN"
 "http://www.w3.org/TR/2001/REC-SVG-20010904/DTD/svg10.dtd">
<svg version="1.0" xmlns="http://www.w3.org/2000/svg"
 width="355.000000pt" height="534.000000pt" viewBox="0 0 355.000000 534.000000"
 preserveAspectRatio="xMidYMid meet">

<g transform="translate(0.000000,534.000000) scale(0.100000,-0.100000)"
fill="#000000" stroke="none">
<path d="M1158 4428 c0 -7 -2 -33 -4 -58 -3 -69 -3 -70 -15 -70 -6 0 -17 -7
-25 -15 -12 -12 -13 -33 -7 -122 30 -409 -29 -780 -135 -864 -46 -36 -96 -44
-147 -25 -25 10 -50 26 -55 37 -6 10 -33 30 -59 44 -137 69 -179 218 -147 521
9 83 16 182 15 220 l0 69 -29 -95 c-33 -107 -84 -306 -101 -393 -9 -47 -16
-60 -36 -70 -24 -11 -25 -14 -19 -65 13 -113 72 -229 160 -315 104 -103 164
-208 191 -333 28 -133 14 -305 -35 -439 -12 -33 -29 -85 -37 -115 -17 -64 -35
-85 -81 -94 -24 -4 -37 -1 -52 14 -27 27 -26 76 6 263 24 136 25 160 15 226
-12 81 -40 138 -91 186 l-32 30 21 -42 c58 -116 51 -199 -44 -493 -35 -107
-69 -223 -76 -258 -26 -137 10 -315 93 -457 44 -75 184 -223 256 -270 52 -35
57 -30 66 65 7 85 47 221 90 315 123 266 380 492 665 584 131 43 219 56 376
55 159 -1 233 -13 373 -60 283 -95 552 -337 658 -592 15 -37 29 -69 32 -72 4
-5 46 42 132 148 181 222 239 475 170 736 -43 160 -108 258 -300 446 -120 118
-153 157 -177 208 -16 34 -33 59 -36 55 -14 -13 -6 -99 12 -138 10 -22 44 -71
75 -109 108 -130 137 -205 116 -298 -7 -29 -14 -66 -16 -82 -9 -65 -56 -85
-134 -56 -65 24 -104 59 -137 124 -29 57 -30 65 -18 376 10 275 0 344 -72 490
-38 78 -61 109 -129 177 -84 84 -106 96 -122 66 -24 -41 -210 16 -378 117
-103 62 -144 93 -273 210 l-95 85 33 -60 c86 -156 244 -312 414 -410 92 -53
177 -178 212 -314 12 -48 15 -95 12 -198 -5 -148 -11 -166 -77 -210 -41 -28
-70 -29 -100 -3 -13 11 -31 20 -40 20 -22 0 -64 39 -83 76 -8 16 -25 76 -37
134 -30 143 -44 171 -140 275 -46 50 -103 117 -128 150 -24 33 -46 62 -48 64
-2 2 0 -14 3 -34 6 -35 4 -38 -15 -33 -20 5 -20 4 -8 -36 7 -22 41 -100 75
-173 65 -140 91 -224 93 -295 1 -102 -5 -175 -17 -199 -21 -39 -80 -87 -126
-100 -37 -11 -46 -11 -83 8 -22 11 -56 26 -74 33 -17 7 -50 30 -71 52 -89 89
-99 223 -32 458 52 185 66 291 52 408 -23 187 -75 327 -192 510 -15 24 -28 29
-31 10z"/>
<path d="M1670 4266 c0 -2 8 -10 18 -17 15 -13 16 -12 3 4 -13 16 -21 21 -21
13z"/>
<path d="M1437 3619 c-4 -20 -23 -92 -42 -160 -24 -82 -35 -143 -34 -183 l0
-61 34 120 c38 136 59 246 53 290 l-3 30 -8 -36z"/>
<path d="M1685 2286 c-237 -77 -370 -155 -540 -317 -57 -55 -109 -99 -114 -99
-18 0 -120 -222 -142 -305 -94 -370 16 -749 292 -1008 270 -254 645 -341 1004
-232 351 107 623 409 700 780 22 105 22 295 0 400 -88 424 -418 742 -840 810
-150 25 -212 20 -360 -29z m430 -91 c33 -9 97 -34 141 -55 260 -121 440 -335
511 -608 34 -132 36 -306 4 -436 -80 -329 -325 -582 -657 -678 -68 -20 -101
-23 -239 -22 -144 0 -169 3 -248 27 -365 112 -612 406 -658 781 -15 121 -2
253 37 377 48 153 115 262 233 379 122 121 279 207 446 244 93 21 343 15 430
-9z"/>
<path d="M1785 2035 l-25 -24 0 -326 c0 -282 -2 -325 -15 -325 -13 0 -15 34
-15 250 0 237 -1 251 -20 270 -12 12 -33 20 -55 20 -22 0 -43 -8 -55 -20 -19
-19 -20 -33 -20 -396 l0 -377 -42 49 c-91 105 -124 134 -155 134 -37 0 -63
-27 -63 -66 0 -29 97 -214 233 -443 109 -182 179 -224 377 -225 88 0 113 3
155 22 91 42 146 113 164 216 16 89 15 953 -2 985 -18 36 -62 47 -103 27 l-34
-16 0 -215 c0 -184 -2 -215 -15 -215 -13 0 -15 38 -15 278 0 258 -1 280 -18
295 -23 21 -81 22 -108 3 -18 -14 -19 -31 -22 -295 -2 -170 -7 -281 -12 -281
-6 0 -10 125 -10 325 l0 326 -25 24 c-13 14 -36 25 -50 25 -14 0 -37 -11 -50
-25z"/>
<path d="M3322 2191 c-28 -121 -116 -274 -242 -420 l-59 -68 20 -22 c27 -29
36 -27 80 18 124 132 230 379 217 512 -3 32 -4 31 -16 -20z"/>
<path d="M765 1340 c3 -5 8 -10 11 -10 2 0 4 5 4 10 0 6 -5 10 -11 10 -5 0 -7
-4 -4 -10z"/>
<path d="M2960 1111 c0 -38 -52 -198 -90 -279 -57 -119 -129 -218 -228 -314
-146 -141 -290 -224 -473 -273 -217 -57 -415 -52 -654 19 -37 11 100 -52 149
-68 147 -50 368 -64 511 -33 379 83 668 357 760 722 23 91 43 245 31 245 -3 0
-6 -8 -6 -19z"/>
</g>
</svg>
